Coordinates
version=1
nRows=17
nColumns=24
inDegrees=yes

Units are S.I. units (second, meters, Newtons, ...)
Angles are in degrees.

endheader
time	pelvis_tilt	pelvis_list	pelvis_rotation	pelvis_tx	pelvis_ty	pelvis_tz	hip_flexion_r	hip_adduction_r	hip_rotation_r	knee_angle_r	ankle_angle_r	subtalar_angle_r	mtp_angle_r	hip_flexion_l	hip_adduction_l	hip_rotation_l	knee_angle_l	ankle_angle_l	subtalar_angle_l	mtp_angle_l	lumbar_extension	lumbar_bending	lumbar_rotation
      4.26500000	     35.10604256	      1.91720893	      7.73232700	     -0.44781738	      0.65787359	     -0.26322681	    -45.59201280	      4.92365556	     -7.25467408	    -20.41632491	     23.28153718	      8.17931835	      0.00000000	    -11.42029738	     -0.76635639	     -4.04292762	     -7.96426492	      3.15187852	     19.36028963	      0.00000000	    -65.19376184	      2.31588261	      0.96373471
      4.27000000	     35.26548203	      1.85755229	      7.54599336	     -0.44224529	      0.65757150	     -0.26362341	    -45.28825178	      4.68419257	     -7.21209499	    -22.35965828	     22.78088690	      8.53494646	      0.00000000	    -11.66575901	     -0.76576413	     -3.73594847	     -8.31772569	      2.88181057	     19.00635113	      0.00000000	    -65.30597470	      2.15240163	      0.81983765
      4.27500000	     35.41583636	      1.79909171	      7.32532604	     -0.43671984	      0.65729393	     -0.26406631	    -44.86743515	      4.38600166	     -7.21438664	    -24.47661512	     22.17827427	      8.90817818	      0.00000000	    -11.87598700	     -0.73292725	     -3.38812645	     -8.84098879	      2.66919916	     18.42106722	      0.00000000	    -65.42642182	      1.97910776	      0.70188299
      4.28000000	     35.55382383	      1.76293265	      7.08255918	     -0.43121239	      0.65704119	     -0.26453388	    -44.34719621	      4.02326896	     -7.29979775	    -26.72773590	     21.46905337	      9.28354807	      0.00000000	    -12.05186171	     -0.65281380	     -3.02490077	     -9.51810777	      2.50969310	     17.69800495	      0.00000000	    -65.53856771	      1.79457320	      0.56121635
      4.28500000	     35.68538651	      1.75848394	      6.83310678	     -0.42573191	      0.65680955	     -0.26503210	    -43.73841895	      3.59943942	     -7.46876732	    -29.10215291	     20.64468907	      9.64985245	      0.00000000	    -12.20976098	     -0.51827132	     -2.64152714	    -10.30738904	      2.40576614	     16.85173271	      0.00000000	    -65.65437530	      1.58859930	      0.38258369
      4.29000000	     35.80671923	      1.78723228	      6.57129421	     -0.42028929	      0.65660023	     -0.26557747	    -43.04069926	      3.10160560	     -7.72512501	    -31.58343843	     19.71185594	      9.98193552	      0.00000000	    -12.34730096	     -0.32120775	     -2.23520325	    -11.19049895	      2.36321602	     15.88748277	      0.00000000	    -65.77081591	      1.36528305	      0.17405499
      4.29500000	     35.92240896	      1.85467271	      6.31094322	     -0.41488394	      0.65641263	     -0.26615954	    -42.27154921	      2.54028212	     -8.05673169	    -34.14245950	     18.67990014	     10.25527353	      0.00000000	    -12.47431633	     -0.06383622	     -1.82796725	    -12.14303491	      2.38329720	     14.85027387	      0.00000000	    -65.89063186	      1.13198046	     -0.07771574
      4.30000000	     35.85833530	      1.90170231	      6.17127676	     -0.40957577	      0.65611791	     -0.26689676	    -41.21786702	      2.01648316	     -8.50251709	    -36.79741962	     17.55078217	     10.52784586	      0.00000000	    -12.32151178	      0.18517229	     -1.27816012	    -13.26190092	      2.53618247	     13.82630257	      0.00000000	    -65.84342652	      1.02197823	     -0.36423771
      4.30500000	     36.03534381	      2.07445598	      5.83933060	     -0.40421147	      0.65604789	     -0.26748733	    -40.42681071	      1.26626576	     -8.91225706	    -39.41870561	     16.38042633	     10.54262464	      0.00000000	    -12.55839754	      0.59733558	     -0.90820521	    -14.24292956	      2.66712635	     12.71517101	      0.00000000	    -66.03167865	      0.69337058	     -0.69179403
      4.31000000	     36.12224008	      2.25500423	      5.55665505	     -0.39891912	      0.65594373	     -0.26820696	    -39.47888746	      0.49465183	     -9.35097432	    -42.07432020	     15.19154082	     10.56254375	      0.00000000	    -12.67050057	      1.04066236	     -0.48166690	    -15.28343641	      2.90712468	     11.58662466	      0.00000000	    -66.14103737	      0.42358289	     -0.98583858
      4.31500000	     36.02780720	      2.37993128	      5.37182870	     -0.39376475	      0.65574180	     -0.26908660	    -38.25797032	     -0.22838805	     -9.85136289	    -44.75918131	     14.00988112	     10.50661825	      0.00000000	    -12.51867408	      1.43698151	     -0.01564708	    -16.42665970	      3.29674538	     10.54734041	      0.00000000	    -66.08877655	      0.29429098	     -1.34962012
      4.32000000	     36.13229713	      2.62468761	      5.07155229	     -0.38852953	      0.65575283	     -0.26984002	    -37.28975777	     -1.10403016	    -10.29951427	    -47.32067816	     12.86740700	     10.21823824	      0.00000000	    -12.70365916	      1.96420920	      0.36566695	    -17.40348865	      3.67475492	      9.54276726	      0.00000000	    -66.21307625	     -0.00311734	     -1.66341841
      4.32500000	     36.25650978	      2.86610158	      4.78492502	     -0.38336558	      0.65583639	     -0.27056620	    -36.32581220	     -1.97033120	    -10.73528592	    -49.79815472	     11.80115423	      9.79593874	      0.00000000	    -12.93936242	      2.46996256	      0.63129712	    -18.31852788	      4.15625659	      8.64508716	      0.00000000	    -66.37029606	     -0.27920282	     -2.07658977
      4.33000000	     36.10737861	      3.02594093	      4.57215712	     -0.37832149	      0.65577489	     -0.27149604	    -34.98352934	     -2.77470628	    -11.10778693	    -52.29147856	     10.90156673	      9.44697810	      0.00000000	    -12.81180823	      2.92616935	      1.03456195	    -19.32374732	      4.73712916	      7.79737613	      0.00000000	    -66.26339009	     -0.43236342	     -2.29139195
      4.33500000	     36.10515715	      3.23274885	      4.34778455	     -0.37331645	      0.65590309	     -0.27231171	    -33.83118277	     -3.58072395	    -11.44865258	    -54.61111827	     10.11566832	      8.87430473	      0.00000000	    -12.92800899	      3.38790472	      1.30938947	    -20.17159584	      5.33150707	      7.12505840	      0.00000000	    -66.30765428	     -0.61531741	     -2.58598275
      4.34000000	     36.25037854	      3.47009678	      4.13612503	     -0.36835159	      0.65621513	     -0.27302836	    -32.87873860	     -4.35415350	    -11.76408207	    -56.74116341	      9.49839617	      8.17325016	      0.00000000	    -13.27610224	      3.83175344	      1.50372078	    -20.88242883	      5.95067313	      6.62163095	      0.00000000	    -66.50031048	     -0.80450970	     -2.96095772
      4.34500000	     36.05686420	      3.53689485	      3.91743349	     -0.36355412	      0.65636769	     -0.27387450	    -31.42905466	     -5.01802495	    -11.89966949	    -58.88981611	      9.08517055	      7.55177032	      0.00000000	    -13.19585786	      4.14491065	      1.69432743	    -21.65137038	      6.64741522	      6.18266273	      0.00000000	    -66.37625455	     -0.89202442	     -3.07327471
